<?xml version="1.0" encoding="utf-8"?>
<!-- Generator: Adobe Illustrator 23.0.4, SVG Export Plug-In . SVG Version: 6.00 Build 0)  -->
<svg version="1.0" id="Layer_1" xmlns="http://www.w3.org/2000/svg" xmlns:xlink="http://www.w3.org/1999/xlink" x="0px" y="0px"
	 viewBox="0 0 432 432" style="enable-background:new 0 0 432 432;" xml:space="preserve">
<style type="text/css">
	.st0{fill:#FFFFFF;}
	.st1{fill:#EF3E24;}
</style>
<g>
	<path class="st0" d="M261.2,219.3L261.2,219.3l-6.3,1.5c-0.1,0-0.2,0.1-0.2,0.3l-7.6,63.4c0,0.1,0,0.2,0.1,0.3
		c0.1,0.1,0.1,0.1,0.2,0.1l0.1,0l7.1-1.7c0.1,0,0.2-0.1,0.2-0.3l1.5-13l10.7-2.6l7.8,29.7c0,0.1,0.2,0.2,0.3,0.2l0.1,0l6.8-1.5
		c0.1,0,0.2-0.1,0.2-0.1c0-0.1,0.1-0.2,0-0.2l-20.8-75.9C261.5,219.4,261.3,219.3,261.2,219.3z M257.1,263.3l2.8-23.4l5.6,21.4
		L257.1,263.3z"/>
	<path class="st0" d="M299.6,209.9c-4.2,0-11.1,6.5-11.4,6.6v-3.3c0-0.1,0-0.2-0.1-0.2c-0.1,0-0.1-0.1-0.2-0.1l-0.1,0l-6.6,1.6
		c-0.2,0-0.3,0.2-0.3,0.3v57.5c0,0.1,0,0.2,0.1,0.2c0.1,0,0.1,0.1,0.2,0.1l0.1,0l6.6-1.5c0.1,0,0.3-0.2,0.3-0.3v-45.9
		c0.8-0.6,6.2-6.1,8.8-6.1c1.5,0,2.2,1,2.2,3v46.2c0,0.1,0,0.2,0.1,0.2c0.1,0,0.1,0.1,0.2,0.1l0.1,0l6.5-1.5c0.1,0,0.2-0.2,0.2-0.3
		v-49.2C306.3,211.2,302.6,209.9,299.6,209.9z"/>
	<path class="st0" d="M311.1,204.4v6.2c0,0.1,0,0.2,0.1,0.3c0.1,0,0.1,0.1,0.2,0.1l0.1,0l7.4-1.9v46.1c0,0.1,0,0.2,0.1,0.2
		c0.1,0,0.1,0.1,0.2,0.1l0.1,0l7.1-1.7c0.1,0,0.2-0.2,0.2-0.3v-46.3l10.3-2.5c0.1,0,0.2-0.2,0.2-0.3v-6.2c0-0.1,0-0.2-0.1-0.2
		c-0.1,0-0.1-0.1-0.2-0.1l-0.1,0l-25.5,6.2C311.2,204.1,311.1,204.3,311.1,204.4z"/>
	<path class="st0" d="M316.8,173c8.7-4.7,11.8-12.8,10.4-18.6c-1.2-5.1-5.7-8.1-12-8.1c-1.8,0-3.8,0.3-6,0.8l-5.8,1.4
		c-0.1,0-0.2,0.2-0.2,0.3v51.1c0,0.1,0,0.2,0.1,0.2c0.1,0,0.1,0.1,0.2,0.1l0.1,0l6.4-1.5c0.1,0,0.2-0.2,0.2-0.3V175l18.9,18.9
		c0.1,0.1,0.1,0.1,0.2,0.1l0.1,0l6.1-1.5c0.1,0,0.2-0.1,0.2-0.2c0-0.1,0-0.2-0.1-0.3C335.5,191.8,321.1,177.3,316.8,173z
		 M310.2,153.2c1.7-0.6,3.3-0.9,4.8-0.9c3.4,0,5.6,1.7,6,4.6c0.5,4.1-3.1,9.5-10.7,11.5V153.2z"/>
	<path class="st0" d="M241.6,224.1L241.6,224.1l-6.4,1.5c-0.1,0-0.2,0.2-0.2,0.3v45.7c0,0.1,0,0.2,0.1,0.3c0.1,0,0.1,0.1,0.2,0.1
		l0.1,0l6.3-1.5c0.1,0,0.2-0.2,0.2-0.3v-45.7c0-0.1,0-0.2-0.1-0.2C241.8,224.1,241.7,224.1,241.6,224.1z"/>
	<path class="st0" d="M195.1,159.4l0.1,0l-27.9,6.7c-0.1,0-0.2,0.2-0.2,0.3v6.8c0,0.1,0,0.2,0.1,0.2c0.1,0,0.1,0.1,0.2,0.1l0.1,0
		l10-2.4v59.3c0,0.1,0,0.2,0.1,0.2c0.1,0,0.1,0.1,0.2,0.1l6.7-1.6c0.1,0,0.2-0.2,0.2-0.3v-59.4l10.4-2.5c0.1,0,0.2-0.2,0.2-0.3v-6.9
		c0-0.1,0-0.2-0.1-0.3C195.2,159.4,195.2,159.4,195.1,159.4z"/>
	<path class="st0" d="M157.8,209.8c-1.8-3.2-3.5-6.2-4.7-8.4c-4.1-7.6-2.5-11.2,0-12.7c0.5-0.3,1-0.4,1.5-0.4c1.2,0,4.1,0,6.6,8.2
		c0,0.1,0.1,0.2,0.2,0.2l0.1,0l0.1,0l7.4-3.4c0.1-0.1,0.2-0.2,0.2-0.4c-3.2-11.5-8.9-13.9-13.2-13.9c-3.4,0-6.2,1.5-7.6,2.5
		c-5.5,3.8-10.1,11.9-4.8,22.6c2.1,4.2,4.5,8.3,6.8,12.2c3.1,5.4,6.1,10.5,8,15.3c2.5,6.2,2.4,10.9,0.4,14.6c-1.1,2-2.8,3.3-5,3.6
		c-0.3,0-0.5,0.1-0.8,0.1c-6,0-5.9-12.8-5.9-13c0-0.1,0-0.2-0.1-0.2c-0.1,0-0.1-0.1-0.2-0.1l-0.1,0l-8.9,1.6c-0.2,0-0.3,0.2-0.3,0.3
		c0,13.9,5.2,22.2,13.9,22.2c0.8,0,1.7-0.1,2.6-0.2c4.9-0.9,9.7-4.6,12.6-9.9c3.7-6.9,3.7-15.5,0-24.2
		C165.4,223.2,161.4,216.1,157.8,209.8z"/>
	<path class="st0" d="M237.9,201L237.9,201c0-0.2-0.1-0.4-0.3-0.4h0h0l-0.1,0l-6.7,1.6c-0.1,0-0.2,0.1-0.2,0.3l0,0.2
		c-0.8,7.5-2.5,9-4.9,9c-3.8,0-6.1-7-6.1-20.9c0-16.3,2.5-23.7,6.1-23.7c1.8,0,4,1,4.9,9.2l0,0.3c0,0.1,0.1,0.2,0.1,0.2
		c0.1,0,0.1,0.1,0.2,0.1l0.1,0l6.4-1.4c0.2,0,0.3-0.2,0.2-0.3l0-0.3c-1.3-10.8-6.8-15.7-11.6-15.7c-0.3,0-0.6,0.1-0.8,0.1
		c-6.9,0-13.1,9.4-13.1,31.4c0,24.4,8.7,28.8,13.6,28.8c3.7,0,10.2-2.4,12.1-18.3L237.9,201z"/>
	<path class="st0" d="M285.5,204.8c7.2,0,11.4-5.8,12.4-17.1l0-0.4c0-0.1,0-0.2-0.1-0.3c-0.1,0-0.1-0.1-0.2-0.1l-0.1,0l-6.4,1.4
		c-0.1,0-0.3,0.1-0.3,0.3l0,0.2c-0.7,6-2.5,9-5.2,9c-2.2,0-5.1-1.6-5.1-15.7c0-0.5,0-0.9,0-1.4l14.9-3.1l2.4-0.4
		c0.2,0,0.3-0.2,0.3-0.3l0-0.3c-1.3-17.8-9.1-19.8-12.4-19.8c-4.7,0-12.6,3.3-12.6,25.3C272.9,203.1,282.6,204.8,285.5,204.8z
		 M285.5,163.9c2.7,0,4.3,3,5.1,9.2l-10.1,1.9C281.1,165.8,282.9,163.9,285.5,163.9z"/>
	<path class="st0" d="M226.3,250.2c0-0.1-0.1-0.2-0.1-0.2c0,0-0.1-0.1-0.2-0.1l-0.1,0l-15.1,3.1c-0.1,0-0.2,0.2-0.2,0.3l0.6,6.1
		c0,0.1,0.1,0.2,0.1,0.2c0,0,0.1,0.1,0.2,0.1l0.1,0l7.7-1.6c0.3,3.6,0.2,9.7-2.3,12.5c-0.9,1-2.1,1.5-3.5,1.5c-0.1,0-0.2,0-0.3,0
		c-1.7-0.1-3.7-2.2-5.1-5.6c-1.6-3.8-2.4-8.5-2.3-13.4c0.3-10.5,4.3-16.9,7.8-17.6c0.3-0.1,0.6-0.1,0.9-0.1c2.3,0,3.6,2.5,4.4,8.2
		l0.1,0.5c0,0.1,0.1,0.2,0.1,0.2c0,0,0.1,0.1,0.2,0.1l0.1,0l6.2-1.2c0.2,0,0.3-0.2,0.2-0.3l-0.1-0.4c-1.3-9.8-4.9-14.7-10.8-14.7
		c-0.3,0-0.5,0-0.8,0c-8.4,0.6-15.4,11.8-15.8,25.3c-0.3,9.7,2.5,19.1,7.2,24.1c2.2,2.4,4.8,3.6,7.4,3.7c0.2,0,0.3,0,0.5,0
		c3.7,0,6.7-1.3,8.9-3.9c6.5-7.5,4.6-23.2,4.2-26.3L226.3,250.2z"/>
	<path class="st0" d="M203.5,224.3v-40.4c0-0.1,0-0.2-0.1-0.2c-0.1,0-0.1-0.1-0.2-0.1l-0.1,0l-6.6,1.6c-0.1,0-0.2,0.2-0.2,0.3v40.4
		c0,0.1,0,0.2,0.1,0.2c0.1,0,0.1,0.1,0.2,0.1l0.1,0l6.6-1.6C203.4,224.5,203.5,224.4,203.5,224.3z"/>
	<path class="st0" d="M199.9,179.7c2.2,0,4.1-1.8,4.1-4.1c0-2.2-1.8-4.1-4.1-4.1c-2.2,0-4.1,1.8-4.1,4.1
		C195.8,177.8,197.7,179.7,199.9,179.7z"/>
	<path class="st0" d="M252.8,212.3v-13.6l11.8,10.8c0.1,0.1,0.1,0.1,0.2,0.1l0.1,0l7.6-1.8c0.1,0,0.2-0.1,0.2-0.2
		c0-0.1,0-0.2-0.1-0.3l-18.1-17.9l17.1-29.6c0.1-0.1,0.1-0.2,0-0.3c-0.1-0.1-0.2-0.1-0.3-0.1l-0.1,0l-8.6,2.1
		c-0.1,0-0.2,0.1-0.2,0.2l-9.8,16.9v-44.7c0-0.1,0-0.2-0.1-0.2c-0.1,0-0.1-0.1-0.2-0.1l-0.1,0l-7,1.7c-0.1,0-0.2,0.2-0.2,0.3V214
		c0,0.1,0,0.2,0.1,0.2c0.1,0,0.1,0.1,0.2,0.1l0.1,0l7-1.7C252.7,212.6,252.8,212.4,252.8,212.3z"/>
	<path class="st1" d="M285.5,163.9c-2.7,0-4.4,1.9-5,11.1l10.1-1.9C289.9,166.9,288.2,163.9,285.5,163.9z"/>
	<path class="st1" d="M310.3,120.9c-28-16.5-78.4-14.4-108.2,11.7c5-3.9,12.3-5.8,17.9-4.7c10,1.9,11.7,14.3,4.6,20.7
		c-8.9,8.1-21-0.5-29.7-3.9c-23.4-9.2-59.4-4-69.2,22.5c10.5-17.4,23.2-13.9,27-7c3.3,6.1,0.6,14.9-8.1,17.2
		c-9.8,2.5-43.9-0.7-61.6,30.1c11.7-14.7,24.7-16.5,31.5-9.6c6.7,6.9,4.1,19.5-9.7,21.9C69,225.9,48.3,234.6,29,249.2
		c43.5-24.9,68.1,1,71.5,4.2c3.4,3.2,20.5,19.6,39.3,23.4c18.7,3.7,30.1-4.2,33.7-6.3c5.2-3.1,11.7-4.6,14.6,0.8
		c2.2,4.1,0.4,10.3-8.1,14.8c-7.6,4-28.5,7-38.6,3.1c4.3,6.9,18.7,13.5,42.5,11.4c23.8-2,36.1-10.7,41.2-15.9
		c3.5-3.6,6.8-4.8,9.9-2.9c2.6,1.6,2.9,5.5,0.9,8.4c-1.6,2.4-10.5,10.9-25.3,10.6c4.4,4.1,22.9,14.1,53.2,11.4
		c36.5-3.3,95.1-34.4,95.9-107.6C360,168.4,338.9,137.8,310.3,120.9z M285.5,156.8c3.3,0,11.1,1.9,12.4,19.8l0,0.3
		c0,0.2-0.1,0.3-0.3,0.3l-2.4,0.4l-14.9,3.1c0,0.5,0,0.9,0,1.4c0,14.1,2.9,15.7,5.1,15.7c2.8,0,4.5-3,5.2-9l0-0.2
		c0-0.1,0.1-0.2,0.3-0.3l6.4-1.4l0.1,0c0.1,0,0.2,0,0.2,0.1c0.1,0.1,0.1,0.2,0.1,0.3l0,0.4c-1,11.4-5.1,17.1-12.4,17.1
		c-3,0-12.6-1.6-12.6-22.7C272.9,160,280.8,156.8,285.5,156.8z M166.8,250.7c-2.8,5.2-7.6,9-12.6,9.9c-0.9,0.2-1.7,0.2-2.6,0.2
		c-8.7,0-13.9-8.3-13.9-22.2c0-0.2,0.1-0.3,0.3-0.3l8.9-1.6l0.1,0c0.1,0,0.1,0,0.2,0.1c0.1,0.1,0.1,0.1,0.1,0.2c0,0.1-0.1,13,5.9,13
		c0.2,0,0.5,0,0.8-0.1c2.2-0.4,3.9-1.6,5-3.6c2-3.7,2.1-8.4-0.4-14.6c-1.9-4.9-4.9-9.9-8-15.3c-2.3-3.9-4.7-8-6.8-12.2
		c-5.4-10.7-0.8-18.9,4.8-22.6c1.4-0.9,4.1-2.5,7.6-2.5c4.2,0,10,2.4,13.2,13.9c0,0.1,0,0.3-0.2,0.4l-7.4,3.4l-0.1,0l-0.1,0
		c-0.1,0-0.1-0.1-0.2-0.2c-2.5-8.3-5.4-8.2-6.6-8.2c-0.5,0-1,0.1-1.5,0.4c-2.5,1.5-4.1,5.1,0,12.7c1.2,2.2,2.9,5.2,4.7,8.4
		c3.5,6.3,7.6,13.4,9,16.8C170.6,235.3,170.6,243.9,166.8,250.7z M195.4,166.6c0,0.1-0.1,0.3-0.2,0.3l-10.4,2.5v59.4
		c0,0.1-0.1,0.3-0.2,0.3l-6.7,1.6c-0.1,0-0.1,0-0.2-0.1c-0.1-0.1-0.1-0.2-0.1-0.2v-59.3l-10,2.4l-0.1,0c-0.1,0-0.1,0-0.2-0.1
		c-0.1-0.1-0.1-0.2-0.1-0.2v-6.8c0-0.1,0.1-0.3,0.2-0.3l27.9-6.7l-0.1,0c0.1,0,0.1,0,0.2,0.1c0.1,0.1,0.1,0.2,0.1,0.3V166.6z
		 M199.9,171.5c2.2,0,4.1,1.8,4.1,4.1c0,2.2-1.8,4.1-4.1,4.1c-2.2,0-4.1-1.8-4.1-4.1C195.8,173.3,197.7,171.5,199.9,171.5z
		 M196.6,226.2c-0.1,0-0.1,0-0.2-0.1c-0.1-0.1-0.1-0.2-0.1-0.2v-40.4c0-0.1,0.1-0.3,0.2-0.3l6.6-1.6l0.1,0c0.1,0,0.1,0,0.2,0.1
		c0.1,0.1,0.1,0.2,0.1,0.2v40.4c0,0.1-0.1,0.3-0.2,0.3L196.6,226.2L196.6,226.2z M222.1,276.9c-2.2,2.6-5.2,3.9-8.9,3.9
		c-0.1,0-0.3,0-0.5,0c-2.6-0.1-5.2-1.4-7.4-3.7c-4.7-5-7.5-14.5-7.2-24.1c0.4-13.6,7.4-24.7,15.8-25.3c0.3,0,0.5,0,0.8,0
		c5.8,0,9.5,5,10.8,14.7l0.1,0.4c0,0.2-0.1,0.3-0.2,0.3l-6.2,1.2l-0.1,0c-0.1,0-0.1,0-0.2-0.1c-0.1,0-0.1-0.1-0.1-0.2l-0.1-0.5
		c-0.8-5.6-2.1-8.2-4.4-8.2c-0.3,0-0.6,0-0.9,0.1c-3.5,0.7-7.5,7.2-7.8,17.6c-0.2,4.8,0.7,9.6,2.3,13.4c1.5,3.4,3.4,5.5,5.1,5.6
		c0.1,0,0.2,0,0.3,0c1.4,0,2.6-0.5,3.5-1.5c2.6-2.8,2.6-8.9,2.3-12.5l-7.7,1.6l-0.1,0c-0.1,0-0.1,0-0.2-0.1c-0.1,0-0.1-0.1-0.1-0.2
		l-0.6-6.1c0-0.1,0.1-0.3,0.2-0.3l15.1-3.1l0.1,0c0.1,0,0.1,0,0.2,0.1c0.1,0,0.1,0.1,0.1,0.2l0.1,0.5
		C226.8,253.7,228.6,269.5,222.1,276.9z M225.7,219.7c-4.9,0-13.6-4.4-13.6-28.8c0-22.1,6.3-31.4,13.1-31.4c0.3,0,0.6-0.1,0.8-0.1
		c4.8,0,10.3,4.8,11.6,15.7l0,0.3c0,0.2-0.1,0.3-0.2,0.3L231,177l-0.1,0c-0.1,0-0.1,0-0.2-0.1c-0.1-0.1-0.1-0.1-0.1-0.2l0-0.3
		c-0.9-8.2-3.1-9.2-4.9-9.2c-3.6,0-6.1,7.3-6.1,23.7c0,13.8,2.3,20.9,6.1,20.9c2.4,0,4.1-1.5,4.9-9l0-0.2c0-0.1,0.1-0.2,0.2-0.3
		l6.7-1.6l0.1,0h0h0c0.2,0,0.3,0.1,0.3,0.3l0,0.1l0,0.4C235.9,217.3,229.4,219.7,225.7,219.7z M241.9,270.1c0,0.1-0.1,0.3-0.2,0.3
		l-6.3,1.5l-0.1,0c-0.1,0-0.1,0-0.2-0.1c-0.1-0.1-0.1-0.2-0.1-0.3v-45.7c0-0.1,0.1-0.3,0.2-0.3l6.3-1.5l0.1,0c0.1,0,0.1,0,0.2,0.1
		c0.1,0.1,0.1,0.1,0.1,0.2V270.1z M245.5,214.3c-0.1,0-0.1,0-0.2-0.1c-0.1-0.1-0.1-0.2-0.1-0.2v-78.8c0-0.1,0.1-0.3,0.2-0.3l7-1.7
		l0.1,0c0.1,0,0.1,0,0.2,0.1c0.1,0.1,0.1,0.1,0.1,0.2v44.7l9.8-16.9c0-0.1,0.1-0.1,0.2-0.2l8.6-2.1l0.1,0c0.1,0,0.2,0,0.3,0.1
		c0.1,0.1,0.1,0.2,0,0.3l-17.1,29.6l18.1,17.9c0.1,0.1,0.1,0.2,0.1,0.3c0,0.1-0.1,0.2-0.2,0.2l-7.6,1.8l-0.1,0c-0.1,0-0.2,0-0.2-0.1
		l-11.8-10.8v13.6c0,0.1-0.1,0.3-0.2,0.3L245.5,214.3L245.5,214.3z M282.3,295.7c0,0.1-0.1,0.1-0.2,0.1l-6.8,1.5l-0.1,0
		c-0.1,0-0.3-0.1-0.3-0.2l-7.8-29.7l-10.7,2.6l-1.5,13c0,0.1-0.1,0.2-0.2,0.3l-7.1,1.7l-0.1,0c-0.1,0-0.2,0-0.2-0.1
		c-0.1-0.1-0.1-0.2-0.1-0.3l7.6-63.4c0-0.1,0.1-0.2,0.2-0.3l6.2-1.5l0.1,0c0.1,0,0.3,0.1,0.3,0.2l20.8,75.9
		C282.3,295.5,282.3,295.6,282.3,295.7z M306.3,266.3c0,0.1-0.1,0.3-0.2,0.3l-6.5,1.5l-0.1,0c-0.1,0-0.1,0-0.2-0.1
		c-0.1-0.1-0.1-0.1-0.1-0.2v-46.2c0-2-0.7-3-2.2-3c-2.7,0-8,5.5-8.8,6.1v45.9c0,0.2-0.1,0.3-0.3,0.3l-6.6,1.5l-0.1,0
		c-0.1,0-0.1,0-0.2-0.1c-0.1-0.1-0.1-0.1-0.1-0.2v-57.5c0-0.1,0.1-0.3,0.3-0.3l6.6-1.6l0.1,0c0.1,0,0.1,0,0.2,0.1
		c0.1,0.1,0.1,0.1,0.1,0.2v3.3c0.3-0.1,7.2-6.6,11.4-6.6c3.1,0,6.7,1.3,6.7,7.2V266.3z M336.9,197.9c0.1,0,0.1,0,0.2,0.1
		c0.1,0.1,0.1,0.2,0.1,0.2v6.2c0,0.1-0.1,0.3-0.2,0.3l-10.3,2.5v46.3c0,0.1-0.1,0.3-0.2,0.3l-7.1,1.7l-0.1,0c-0.1,0-0.1,0-0.2-0.1
		c-0.1-0.1-0.1-0.2-0.1-0.2V209l-7.4,1.9l-0.1,0c-0.1,0-0.1,0-0.2-0.1c-0.1-0.1-0.1-0.2-0.1-0.3v-6.2c0-0.1,0.1-0.3,0.2-0.3
		L336.9,197.9L336.9,197.9z M335.8,192.3c0,0.1-0.1,0.2-0.2,0.2l-6.1,1.5l-0.1,0c-0.1,0-0.2,0-0.2-0.1L310.2,175v23.4
		c0,0.1-0.1,0.3-0.2,0.3l-6.4,1.5l-0.1,0c-0.1,0-0.1,0-0.2-0.1c-0.1-0.1-0.1-0.2-0.1-0.2v-51.1c0-0.1,0.1-0.3,0.2-0.3l5.8-1.4
		c2.1-0.5,4.1-0.8,6-0.8c6.3,0,10.7,3,12,8.1c1.4,5.7-1.8,13.9-10.4,18.6c4.3,4.3,18.8,18.8,18.9,19
		C335.8,192.1,335.8,192.2,335.8,192.3z"/>
	<path class="st1" d="M320.9,156.9c-0.3-2.9-2.6-4.6-6-4.6c-1.4,0-3,0.3-4.8,0.9v15.1C317.8,166.4,321.4,161,320.9,156.9z"/>
	<polygon class="st1" points="257.1,263.3 265.5,261.2 259.9,239.9 	"/>
</g>
</svg>
